<?xml version="1.0" standalone="no"?><!DOCTYPE svg PUBLIC "-//W3C//DTD SVG 1.1//EN" "http://www.w3.org/Graphics/SVG/1.1/DTD/svg11.dtd"><svg t="1619518416282" class="icon" viewBox="0 0 1024 1024" version="1.1" xmlns="http://www.w3.org/2000/svg" p-id="2244" data-spm-anchor-id="a313x.7781069.0.i8" xmlns:xlink="http://www.w3.org/1999/xlink" width="200" height="200"><defs><style type="text/css"></style></defs><path d="M548.491273 390.826243C491.275537 385.597261 440.767274 429.343785 436.00416 485.764986c-2.340602 27.676644 6.254915 54.641688 24.186219 75.885261 17.931304 21.243573 43.061545 34.219271 70.765834 36.546563 2.970291 0.273377 5.899627 0.382933 8.828963 0.382933 53.601421 0 99.114147-41.857456 103.630505-95.3227 4.819428-57.159422-37.777273-107.612395-94.924408-112.4308z m39.050986 107.722975c-2.190091 25.980066-25.172221 45.881325-51.877197 43.800791-12.770922-1.095557-24.364375-7.090406-32.63225-16.863392-8.281185-9.80063-12.237477-22.229574-11.15523-35.013806 2.080535-24.665397 23.036396-43.965636 47.701793-43.965636 1.382245 0 2.76449 0.054266 4.174381 0.163822 26.378358 2.246404 46.01955 25.515222 43.788503 51.878221z" fill="#29B674" p-id="2245" data-spm-anchor-id="a313x.7781069.0.i9" class=""></path><path d="M936.578623 288.577983L668.063673 74.608476c-23.652775-18.862015-61.130049-14.563745-79.977731 9.061385l-60.062137 75.365127c-16.352473 20.544259-16.177388 49.015438-1.315692 69.21772L260.411922 405.471899a27.98381 27.98381 0 0 0-12.031677 18.232326l-92.680051 502.727695c-1.848113 10.019742 1.875758 20.257571 9.74534 26.718287a27.952069 27.952069 0 0 0 17.821748 6.405427c3.46278 0 6.939895-0.629689 10.252164-1.943335l472.833314-185.935527a28.059577 28.059577 0 0 0 15.35828-14.6733L814.565281 458.836802c8.121458 4.264482 17.222775 6.560033 26.45822 6.560034 17.452125 0 33.685827-7.829651 44.540036-21.462685l60.062137-75.365127c19.546995-24.555842 15.495481-60.44507-9.047051-79.991041zM635.158046 723.687267L271.790359 866.585822l186.537572-227.609707c9.813941-11.963076 8.062073-29.647623-3.914313-39.448254-11.949766-9.772985-29.621002-8.048763-39.448254 3.914313l-184.125298 224.665014 70.525221-382.557346 269.660678-179.464572 197.799287 157.618955-133.667206 299.983042z m206.549411-314.683987c-0.081911 0.109556-0.260067 0.328667-0.683956 0.328667L571.878862 193.966884l61.252915-75.502328L901.769594 333.638153l-60.062137 75.365127z" fill="#29B674" p-id="2246"></path></svg>