<svg xmlns="http://www.w3.org/2000/svg" viewBox="0 0 869.5 188.6"><title>credible_l</title><path d="M485.05,184.63H450.71V170.3c-.91.31-1.45.32-1.65.59-13.32,18-31.71,20.29-51.48,15.37-21.68-5.39-33.75-21.23-39.35-41.85-6.88-25.37-6.43-50.59,7.21-73.94a50.5,50.5,0,0,1,77.15-12.25c2.33,2.07,4.3,4.54,7.28,7.73V.34h35.18Zm-33.68-65c-.28-9.09-1-17.71-4.28-25.87-4.51-11.3-13.21-17.13-25.54-17.26C408.88,76.34,399.88,82,395,93.1c-2.79,6.36-3.79,13.1-4.12,19.92-.59,12.53.82,24.66,8.78,35.07,10.68,14,29.93,14.72,41.66,1.66C449.17,141,451.25,130.44,451.37,119.6Z" fill="#044b92"/><path d="M586.08,169.23c-.56,5.73.16,10.41-1,15.26H551.58V.24h34.75V64.7c1.3.62,1.68,0,2-.55,19.18-26.41,64.59-24.54,82.78,6.22,16,27.07,14.33,72.6-4.34,97.26-14.91,19.69-40,24.39-60.12,18.09C598.23,183.06,591.83,177.29,586.08,169.23Zm59.45-51.8c0-9.05-1-17.92-5.08-26.2-5.3-10.68-14.44-14.75-25.74-14.72-10.87,0-19.39,4.52-24.17,14.62-5.83,12.31-6.25,25.39-4.64,38.62a36.75,36.75,0,0,0,8.52,19.37c10.91,13.06,29.94,13.28,41,.41C643.42,140.3,645.65,129.23,645.53,117.43Z" fill="#044b92"/><path d="M776.7,126.33c.28,16.5,9.23,29.47,21.87,32.55,14.19,3.46,25.64-1.41,32.31-13.76h36.71C861,166,848.08,180.25,827.11,185.83a80.83,80.83,0,0,1-51-3A49,49,0,0,1,747.33,154c-8.44-21.76-9.72-44.15-2.84-66.49,7.57-24.59,27.4-39.67,53.12-41.43,9.16-.63,18.28-.44,27.29,1.8,14.47,3.61,25.66,11.67,33.12,24.55,9.56,16.52,11.44,34.75,11.48,53.88Zm55.48-22.69c.31-16.78-11.7-29.53-27.24-29.48-14.92,0-27.46,13.73-26.84,29.48Z" fill="#044b92"/><path d="M346.31,126.53H253.86c-1.91,12.79,7.25,27.56,19.43,31.68,14.08,4.78,27-.15,34.35-13.22.72,0,1.53-.14,2.35-.14h34.14a57.53,57.53,0,0,1-16.87,28.24A54.82,54.82,0,0,1,297,187.33c-14.35,1.93-28.59,1.3-42.34-3.75-14.72-5.4-25.34-15.37-30.9-30-8.3-21.8-9.48-44.21-2.45-66.53,7.7-24.48,27.78-39.53,53.44-41,8.65-.5,17.26-.35,25.81,1.64,16.85,3.92,29,13.67,36.47,29.13S346.06,109,346.31,126.53Zm-91.76-23.12H309c-.83-17.94-12.29-29.76-28-29.24C266.35,74.66,254.65,87.48,254.55,103.41Z" fill="#044b92"/><path d="M125,97.77H89.23c-.91-.41-.7-1.34-.87-2.11C85.85,84.38,77.64,76.87,66.77,75.94,53.46,74.8,44.33,79.56,40,91.19a67.79,67.79,0,0,0,.78,50.67c6.58,15.92,22.46,20.78,36.63,12.28,6-3.63,8.74-7.91,11.36-18.09h35.71a54.3,54.3,0,0,1-12.77,30.37C90.2,192.64,46.13,196.17,21,173.58c-9.2-8.27-14.57-19-17.52-30.78A108.22,108.22,0,0,1,3.59,88c5.79-21.6,19.46-35.69,41.76-40.21,19.49-3.94,38.53-3,55.85,8.06C116.36,65.45,123.51,79.88,125,97.77Z" fill="#044b92"/><path d="M693.78.21h35.48V184.5H693.78Z" fill="#044b92"/><path d="M169.5,184.58H133.88v-135h33.35V64.91C173,57.07,179,51.67,186.89,48.65s16.27-2.94,24.94-2.69V81.83c-3.88,0-7.65,0-11.42,0-19.85.31-30.84,11.36-30.9,31.19,0,22,0,44,0,65.94Z" fill="#044b92"/><path d="M535.87,184.83H500.6V60.74c11.69,5,23.32,5.14,35.27-.15Z" fill="#044b92"/><path d="M518.09,48c-13.45,0-23.8-10.61-23.75-24.25S504.86,0,518.56,0a23.63,23.63,0,0,1,23.78,24.22C542.27,37.72,531.75,48,518.09,48Z" fill="#5dc1a7"/></svg>