<?xml version="1.0" encoding="UTF-8"?>
<svg width="224px" height="32px" viewBox="0 0 224 32" version="1.1" xmlns="http://www.w3.org/2000/svg" xmlns:xlink="http://www.w3.org/1999/xlink">
    <title>Logos/Full Color</title>
    <defs>
        <polygon id="path-1" points="0 32.4005055 223 32.4005055 223 0.000107644306 127.190794 0.000107644306 0 0.000107644306"></polygon>
    </defs>
    <g id="5.3-Dashboard" stroke="none" stroke-width="1" fill="none" fill-rule="evenodd">
        <g id="Dashboard/In-Repayment/Standard-Announcement" transform="translate(-602.000000, -1188.000000)">
            <g id="Group" transform="translate(602.500000, 1188.000000)">
                <path d="M175.53487,6.39450234 L175.53487,1.67806708 L178.934277,1.67806708 L178.934277,6.39450234 L181.731952,6.39450234 L181.731952,9.13620281 L178.934277,9.13620281 L178.934277,17.1971466 C178.934277,17.9668034 179.319105,18.1863978 180.168419,18.1863978 C180.689956,18.1863978 181.238403,18.021702 181.731952,17.9102902 L181.731952,20.7085039 C180.799215,20.8193775 179.97735,20.9275601 179.044612,20.9275601 C176.521968,20.9275601 175.53487,19.6670452 175.53487,17.6363354 L175.53487,9.13620281 L173.560135,9.13620281 L173.560135,6.39450234 L175.53487,6.39450234 Z M159.409753,20.6536053 L159.409753,6.39450234 L162.53682,6.39450234 L162.53682,7.93058658 C163.797335,7.05328549 165.250533,6.12054758 166.923325,6.12054758 C169.775361,6.12054758 171.145673,7.98440874 171.145673,10.8913432 L171.145673,20.6536053 L167.746266,20.6536053 L167.746266,11.3854306 C167.746266,9.46613261 167.142381,8.86224805 165.990587,8.86224805 C164.509402,8.86224805 163.385595,9.71263807 162.810236,10.370883 L162.810236,20.6536053 L159.409753,20.6536053 Z M153.295018,11.7697207 C153.239043,9.79498596 152.198122,8.64319189 150.552779,8.64319189 C148.906898,8.64319189 147.864363,9.79498596 147.809464,11.7697207 L153.295018,11.7697207 Z M147.809464,14.0727707 C147.864363,17.0335273 149.181391,18.1863978 150.772374,18.1863978 C152.36228,18.1863978 153.101796,17.4737925 153.951648,16.4845413 L156.419932,18.021702 C155.103442,20.0518736 153.184144,20.9275601 150.441906,20.9275601 C146.740556,20.9275601 144.410595,18.0480749 144.410595,13.5243229 C144.410595,8.99949454 146.740556,6.12054758 150.606601,6.12054758 C154.336477,6.09256006 156.419932,9.246 156.419932,12.6744711 L156.419932,14.0727707 L147.809464,14.0727707 Z M138.26572,10.0689407 C137.580564,9.43868331 136.73125,8.86224805 135.633278,8.86224805 C133.604183,8.86224805 132.454004,10.5086677 132.454004,13.5243229 C132.454004,16.5405164 133.604183,18.1863978 135.633278,18.1863978 C137.085938,18.1863978 137.552576,17.4737925 138.26572,16.9231919 L138.26572,10.0689407 Z M141.666204,20.6536053 L138.787257,20.6536053 L138.622023,19.1196739 C137.416406,20.2973027 136.292062,20.9275601 134.754363,20.9275601 C130.970665,20.9275601 129.051906,17.581975 129.051906,13.1400328 C129.051906,9.63136661 131.082077,6.12054758 134.754363,6.12054758 C135.907233,6.12054758 137.525127,6.80624181 138.21136,7.71045398 L138.26572,7.71045398 L138.26572,0.855664587 L141.666204,0.855664587 L141.666204,20.6536053 Z M126.309129,6.39450234 L126.309129,20.6536053 L123.183138,20.6536053 L123.183138,19.1196739 C121.922623,19.9953604 120.468349,20.9275601 118.795018,20.9275601 C115.94352,20.9275601 114.57267,19.0626225 114.57267,16.1567644 L114.57267,6.39450234 L117.973692,6.39450234 L117.973692,15.6632153 C117.973692,17.581975 118.575424,18.1863978 119.727218,18.1863978 C121.20948,18.1863978 122.33221,17.3354696 122.909183,16.6766864 L122.909183,6.39450234 L126.309129,6.39450234 Z M105.606438,6.39450234 L105.606438,1.67806708 L109.005845,1.67806708 L109.005845,6.39450234 L111.802444,6.39450234 L111.802444,9.13620281 L109.005845,9.13620281 L109.005845,17.1971466 C109.005845,17.9668034 109.389597,18.1863978 110.239987,18.1863978 C110.761523,18.1863978 111.309433,18.021702 111.802444,17.9102902 L111.802444,20.7085039 C110.870244,20.8193775 110.048918,20.9275601 109.11618,20.9275601 C106.592998,20.9275601 105.606438,19.6670452 105.606438,17.6363354 L105.606438,9.13620281 L103.631165,9.13620281 L103.631165,6.39450234 L105.606438,6.39450234 Z M98.5304392,6.12054758 C97.9540039,4.58500156 96.7752988,3.5435429 94.9921708,3.5435429 C93.3473658,3.5435429 92.1686607,4.20071139 92.1686607,5.73679563 C92.1686607,9.13620281 102.369573,8.4235975 102.369573,14.8402746 C102.369573,18.9000796 99.8184033,20.9275601 95.4318978,20.9275601 C92.1966482,20.9275601 89.151929,19.1196739 88.0281225,16.2391123 L91.1535749,14.8677239 C92.0588635,16.7326615 93.2375686,17.9668034 95.4593471,17.9668034 C97.3511958,17.9668034 98.8043939,17.2531217 98.8043939,15.3338237 C98.8043939,11.4403292 88.6018666,12.2078331 88.6018666,6.12054758 C88.6018666,2.58281747 91.5653144,0.581709828 94.9921708,0.581709828 C98.1730601,0.581709828 100.807116,2.171078 101.985283,5.05163963 L98.5304392,6.12054758 Z M80.5409228,20.6536053 L82.5151193,20.6536053 L82.5151193,0.855664587 L80.5409228,0.855664587 L80.5409228,20.6536053 Z M73.711968,12.9484259 C69.1876778,13.7433791 66.967514,15.0587925 66.967514,17.0335273 C66.967514,18.3500172 68.2285671,19.2283947 69.3254626,19.2283947 C70.7506732,19.2283947 72.5607122,18.1863978 73.711968,16.8693697 L73.711968,12.9484259 Z M65.4034423,9.13620281 C66.3092691,7.49085959 68.0622566,6.12054758 70.7506732,6.12054758 C73.1640585,6.12054758 75.6861646,7.27180343 75.6861646,10.3983323 L75.6861646,17.581975 C75.6861646,19.146585 75.8228729,19.9135507 76.0150179,20.6536053 L73.9869992,20.6536053 L73.7674048,18.6804852 C72.7792301,19.775766 71.1893237,20.9275601 69.0509696,20.9275601 C66.8571786,20.9275601 64.9917028,19.6132231 64.9917028,17.006078 C64.9917028,13.8806256 67.3771006,12.3181685 73.711968,11.1943619 L73.711968,10.4257816 C73.711968,8.5333947 72.4772878,7.82025117 70.7775842,7.82025117 C68.5848697,7.82025117 67.5154236,9.08184243 67.1305952,10.0420296 L65.4034423,9.13620281 Z M56.4630445,6.39450234 L58.4377793,6.39450234 L58.4377793,9.2185507 L58.4932161,9.2185507 C59.5901115,7.27180343 60.7688167,6.17490796 63.1267652,6.17490796 L63.1267652,8.14964275 C60.6584813,8.20400312 59.3694407,9.82243526 58.4377793,12.7562808 L58.4377793,20.6536053 L56.4630445,20.6536053 L56.4630445,6.39450234 Z M51.0345421,12.2078331 C51.0345421,9.5759298 49.7729509,7.82025117 47.6340585,7.82025117 C45.247046,7.82025117 43.9596201,9.5759298 43.7949243,12.2078331 L51.0345421,12.2078331 Z M53.4463128,17.6094243 C52.5141131,19.2283947 51.1981615,20.9275601 47.9629119,20.9275601 C44.7814844,20.9275601 41.7647527,18.7348456 41.7647527,13.5243229 C41.7647527,8.91660842 44.0688791,6.12054758 47.5786217,6.12054758 C50.5393783,6.12054758 53.0076622,8.04038378 53.0076622,12.5921232 L53.0076622,13.9086131 L43.7400257,13.9086131 C43.7400257,17.0335273 45.6049633,19.2283947 47.9629119,19.2283947 C49.717514,19.2283947 51.0883643,18.2956568 51.9118432,16.8139329 L53.4463128,17.6094243 Z M36.1145031,9.79498596 C35.0466716,8.61574259 33.7021942,7.82025117 32.5240273,7.82025117 C30.2199009,7.82025117 28.492748,9.32834789 28.492748,13.6330437 C28.492748,17.2531217 30.0546669,19.2283947 32.5240273,19.2283947 C33.7840039,19.2283947 34.7167418,18.6804852 36.1145031,17.3080203 L36.1145031,9.79498596 Z M38.0903144,0.855664587 L38.0903144,17.5281529 C38.0903144,18.5696115 38.0348775,19.6132231 38.1995733,20.6536053 L36.3889961,20.6536053 L36.1145031,19.2553058 C35.4567964,20.1605944 34.0584969,20.9275601 32.3587933,20.9275601 C29.8345343,20.9275601 26.5180133,19.2283947 26.5180133,13.5243229 C26.5180133,7.98440874 29.8345343,6.12054758 32.2495343,6.12054758 C33.5918588,6.12054758 34.9083487,6.80624181 36.0057824,7.71045398 L36.1145031,7.76642902 L36.1145031,0.855664587 L38.0903144,0.855664587 Z M21.1438713,12.2078331 C21.1438713,9.5759298 19.8828183,7.82025117 17.7433877,7.82025117 C15.3569134,7.82025117 14.0684111,9.5759298 13.9031771,12.2078331 L21.1438713,12.2078331 Z M23.555642,17.6094243 C22.6234423,19.2283947 21.3080289,20.9275601 18.0717028,20.9275601 C14.8908136,20.9275601 11.8740819,18.7348456 11.8740819,13.5243229 C11.8740819,8.91660842 14.1782083,6.12054758 17.6874126,6.12054758 C20.6497839,6.12054758 23.115915,8.04038378 23.115915,12.5921232 L23.115915,13.9086131 L13.8488167,13.9086131 C13.8488167,17.0335273 15.7137543,19.2283947 18.0717028,19.2283947 C19.826305,19.2283947 21.1976934,18.2956568 22.0211724,16.8139329 L23.555642,17.6094243 Z M12.1480367,0.855664587 L12.1480367,2.72060218 L2.60536895,2.72060218 L2.60536895,9.35633541 L9.68029095,9.35633541 L9.68029095,11.221273 L2.60536895,11.221273 L2.60536895,20.6536053 L0.41050156,20.6536053 L0.41050156,0.855664587 L12.1480367,0.855664587 Z" id="Fill-1" fill="#585E60"></path>
                <path d="M220.041161,10.0690484 C219.355467,9.43879095 218.505077,8.86289392 217.408182,8.86289392 C215.379625,8.86289392 214.227831,10.5076989 214.227831,13.5238924 C214.227831,16.5400858 215.379625,18.1870437 217.408182,18.1870437 C218.862456,18.1870437 219.328556,17.4744384 220.041161,16.9238378 L220.041161,10.0690484 Z M223.441645,20.6531747 L220.563236,20.6531747 L220.398002,19.1192434 C219.19131,20.2968721 218.066965,20.9271295 216.530342,20.9271295 C212.746645,20.9271295 210.827347,17.5826209 210.827347,13.1401404 C210.827347,9.63147426 212.856442,6.12065523 216.530342,6.12065523 C217.682675,6.12065523 219.301107,6.80634945 219.986263,7.71109984 L220.041161,7.71109984 L220.041161,0.855772231 L223.441645,0.855772231 L223.441645,20.6531747 Z M204.301411,20.6531747 L207.700818,20.6531747 L207.700818,6.39460998 L204.301411,6.39460998 L204.301411,20.6531747 Z M204.301411,3.76270671 L207.700818,3.76270671 L207.700818,0.581817473 L204.301411,0.581817473 L204.301411,3.76270671 Z M191.549328,13.2499376 L196.157043,13.2499376 L193.935264,4.63946958 L193.880366,4.63946958 L191.549328,13.2499376 Z M191.495506,0.828322933 L196.211941,0.828322933 L201.832589,20.6531747 L198.075264,20.6531747 L196.978907,16.3759282 L190.726388,16.3759282 L189.548221,20.6531747 L185.790896,20.6531747 L191.495506,0.828322933 Z" id="Fill-3" fill="#3EA11B"></path>
                <path d="M219.886154,31.1616271 L219.886154,26.0813541 L220.696177,26.0813541 L222.910959,29.9931482 L222.940023,29.9931482 L222.940023,26.0813541 L223.445413,26.0813541 L223.445413,31.1616271 L222.982004,31.1616271 L220.406614,26.6287254 L220.393158,26.6287254 L220.393158,31.1616271 L219.886154,31.1616271 Z M215.333876,30.753117 C216.228938,30.753117 216.757472,30.0636552 216.757472,28.6201451 C216.757472,27.1787878 216.228938,26.4887878 215.333876,26.4887878 C214.441505,26.4887878 213.912971,27.1787878 213.912971,28.6201451 C213.912971,30.0636552 214.441505,30.753117 215.333876,30.753117 L215.333876,30.753117 Z M215.333876,26.0113853 C216.579859,26.0113853 217.318299,26.9252855 217.318299,28.6201451 C217.318299,30.3171576 216.579859,31.2315959 215.333876,31.2315959 C214.088431,31.2315959 213.349991,30.3171576 213.349991,28.6201451 C213.349991,26.9252855 214.088431,26.0113853 215.333876,26.0113853 L215.333876,26.0113853 Z M210.093213,31.1616271 L210.656731,31.1616271 L210.656731,26.0813541 L210.093213,26.0813541 L210.093213,31.1616271 Z M206.090459,26.5582184 L206.090459,31.1616271 L205.526941,31.1616271 L205.526941,26.5582184 L204.00808,26.5582184 L204.00808,26.0813541 L207.610397,26.0813541 L207.610397,26.5582184 L206.090459,26.5582184 Z M199.71684,29.09378 L201.258845,29.09378 L200.526863,26.4747941 L200.448821,26.4747941 L199.71684,29.09378 Z M198.505303,31.1616271 L200.067222,26.0813541 L200.905771,26.0813541 L202.468767,31.1616271 L201.8778,31.1616271 L201.398244,29.5717207 L199.575826,29.5717207 L199.098424,31.1616271 L198.505303,31.1616271 Z M196.622066,29.6406131 C196.39709,30.5857301 195.876629,31.2315959 194.834633,31.2315959 C193.695756,31.2315959 192.893806,30.4021966 192.893806,28.6201451 C192.893806,26.9672668 193.611793,26.0113853 194.834633,26.0113853 C195.778135,26.0113853 196.327121,26.5582184 196.552636,27.487727 L196.032176,27.643273 C195.848642,26.9252855 195.523556,26.4887878 194.76574,26.4887878 C194.032683,26.4887878 193.455171,27.1642559 193.455171,28.6201451 C193.455171,30.092181 194.032683,30.753117 194.877152,30.753117 C195.657573,30.753117 195.96113,30.1616115 196.116676,29.5415803 L196.622066,29.6406131 Z M187.400179,26.0813541 L187.400179,29.6691388 C187.400179,30.2611825 187.822144,30.753117 188.618174,30.753117 C189.412589,30.753117 189.834555,30.2611825 189.834555,29.6691388 L189.834555,26.0813541 L190.396458,26.0813541 L190.396458,29.6266193 C190.396458,30.6406287 189.665553,31.2315959 188.618174,31.2315959 C187.568642,31.2315959 186.837199,30.6406287 186.837199,29.6266193 L186.837199,26.0813541 L187.400179,26.0813541 Z M181.210093,30.68261 L181.968985,30.68261 C183.138002,30.68261 183.742425,29.9861513 183.742425,28.6201451 C183.742425,27.1368066 183.037893,26.5582184 181.997511,26.5582184 L181.210093,26.5582184 L181.210093,30.68261 Z M180.646575,26.0813541 L182.010966,26.0813541 C183.38989,26.0813541 184.304867,26.9538112 184.304867,28.6201451 C184.304867,30.1126334 183.50184,31.1616271 181.982979,31.1616271 L180.646575,31.1616271 L180.646575,26.0813541 Z M178.009828,26.0813541 L178.009828,26.5582184 L175.525397,26.5582184 L175.525397,28.262766 L177.29184,28.262766 L177.29184,28.7412449 L175.525397,28.7412449 L175.525397,30.68261 L178.149227,30.68261 L178.149227,31.1616271 L174.962417,31.1616271 L174.962417,26.0813541 L178.009828,26.0813541 Z M167.357885,31.1616271 L168.074796,27.9392949 L167.455842,27.9392949 L167.547878,27.502259 L168.166294,27.502259 L168.25833,27.0883666 C168.455319,26.2207535 168.793322,26.0113853 169.391824,26.0113853 C169.538759,26.0113853 169.693229,26.0312995 169.834781,26.0458315 L169.735748,26.4957847 C169.617339,26.4823292 169.496778,26.4473448 169.383751,26.4473448 C169.038751,26.4473448 168.883743,26.5582184 168.793322,26.9672668 L168.673837,27.502259 L169.46879,27.502259 L169.377293,27.9392949 L168.581801,27.9392949 L167.864352,31.1616271 L167.357885,31.1616271 Z M164.07904,27.8682496 C163.474617,27.8682496 162.969227,28.3903245 162.764703,29.3311357 C162.552644,30.2751763 162.827675,30.7950983 163.432636,30.7950983 C164.038135,30.7950983 164.537605,30.2751763 164.748587,29.3311357 C164.953112,28.3903245 164.685077,27.8682496 164.07904,27.8682496 L164.07904,27.8682496 Z M163.334141,31.2315959 C162.335202,31.2315959 162.01819,30.3865881 162.257698,29.3311357 C162.488595,28.2762215 163.172675,27.4306755 164.171614,27.4306755 C165.170553,27.4306755 165.487027,28.2762215 165.255054,29.3311357 C165.015545,30.3865881 164.332542,31.2315959 163.334141,31.2315959 L163.334141,31.2315959 Z M156.290974,26.5582184 L156.290974,31.1616271 L155.729071,31.1616271 L155.729071,26.5582184 L154.209672,26.5582184 L154.209672,26.0813541 L157.81145,26.0813541 L157.81145,26.5582184 L156.290974,26.5582184 Z M148.292464,31.1616271 L148.292464,26.0813541 L149.101949,26.0813541 L151.318884,29.9931482 L151.34741,29.9931482 L151.34741,26.0813541 L151.853876,26.0813541 L151.853876,31.1616271 L151.389391,31.1616271 L148.814539,26.6287254 L148.799469,26.6287254 L148.799469,31.1616271 L148.292464,31.1616271 Z M145.599204,26.0813541 L145.599204,26.5582184 L143.116388,26.5582184 L143.116388,28.262766 L144.881754,28.262766 L144.881754,28.7412449 L143.116388,28.7412449 L143.116388,30.68261 L145.740756,30.68261 L145.740756,31.1616271 L142.553408,31.1616271 L142.553408,26.0813541 L145.599204,26.0813541 Z M139.08457,31.1616271 L139.08457,26.5173136 L139.063041,26.5173136 L137.642675,31.1616271 L137.206177,31.1616271 L135.778275,26.5173136 L135.756746,26.5173136 L135.756746,31.1616271 L135.251356,31.1616271 L135.251356,26.0813541 L136.123275,26.0813541 L137.417698,30.1895991 L137.432768,30.1895991 L138.704586,26.0813541 L139.591575,26.0813541 L139.591575,31.1616271 L139.08457,31.1616271 Z M131.375085,26.5582184 L131.375085,31.1616271 L130.811567,31.1616271 L130.811567,26.5582184 L129.291629,26.5582184 L129.291629,26.0813541 L132.895023,26.0813541 L132.895023,26.5582184 L131.375085,26.5582184 Z M124.529445,28.3757925 L125.549375,28.3757925 C126.323876,28.3757925 126.731848,28.0862293 126.731848,27.4473604 C126.731848,26.763819 126.266286,26.5582184 125.542378,26.5582184 L124.529445,26.5582184 L124.529445,28.3757925 Z M123.965927,31.1616271 L123.965927,26.0813541 L125.598353,26.0813541 C126.696325,26.0813541 127.293751,26.5743651 127.293751,27.4188346 C127.293751,28.1368222 126.879321,28.542103 126.28028,28.7412449 L127.357261,31.1616271 L126.745842,31.1616271 L125.718377,28.8521186 L124.529445,28.8521186 L124.529445,31.1616271 L123.965927,31.1616271 Z M118.760787,29.09378 L120.301177,29.09378 L119.569196,26.4747941 L119.492768,26.4747941 L118.760787,29.09378 Z M117.549789,31.1616271 L119.112784,26.0813541 L119.949718,26.0813541 L121.512176,31.1616271 L120.92067,31.1616271 L120.442729,29.5717207 L118.619773,29.5717207 L118.141832,31.1616271 L117.549789,31.1616271 Z M113.154133,28.418312 L114.111629,28.418312 C115.047059,28.418312 115.355998,28.0937644 115.355998,27.487727 C115.355998,26.8822278 114.99808,26.5582184 114.238112,26.5582184 L113.154133,26.5582184 L113.154133,28.418312 Z M112.590615,31.1616271 L112.590615,26.0813541 L114.364055,26.0813541 C115.448034,26.0813541 115.918977,26.7008471 115.918977,27.502259 C115.918977,28.3467285 115.335545,28.8957145 114.055116,28.8957145 L113.154133,28.8957145 L113.154133,31.1616271 L112.590615,31.1616271 Z M109.953868,26.0813541 L109.953868,26.5582184 L107.469976,26.5582184 L107.469976,28.262766 L109.235881,28.262766 L109.235881,28.7412449 L107.469976,28.7412449 L107.469976,30.68261 L110.094344,30.68261 L110.094344,31.1616271 L106.907534,31.1616271 L106.907534,26.0813541 L109.953868,26.0813541 Z M101.27989,30.68261 L102.039321,30.68261 C103.206723,30.68261 103.811684,29.9861513 103.811684,28.6201451 C103.811684,27.1368066 103.10769,26.5582184 102.067846,26.5582184 L101.27989,26.5582184 L101.27989,30.68261 Z M100.715834,26.0813541 L102.08184,26.0813541 C103.460764,26.0813541 104.374664,26.9538112 104.374664,28.6201451 C104.374664,30.1126334 103.573252,31.1616271 102.053853,31.1616271 L100.715834,31.1616271 L100.715834,26.0813541 Z M94.9687044,31.1616271 L95.6597808,31.1616271 L95.6597808,30.3865881 L94.9687044,30.3865881 L94.9687044,31.1616271 Z M91.9369025,27.3757769 C91.8109587,26.8822278 91.4099836,26.4887878 90.7565827,26.4887878 C90.1640008,26.4887878 89.8136186,26.7713541 89.8055452,27.2762059 C89.7926279,28.3903245 92.6629633,28.1082964 92.6629633,29.7391076 C92.6629633,30.4780858 92.2474563,31.2315959 90.9535718,31.2315959 C89.8410679,31.2315959 89.4051084,30.5136084 89.1376123,29.9086474 L89.6516139,29.7251139 C89.8555998,30.2611825 90.2345078,30.753117 90.9815593,30.753117 C91.7269961,30.753117 92.0994454,30.3596771 92.0994454,29.8386786 C92.0994454,28.542103 89.2431037,28.9226256 89.2431037,27.3192637 C89.2431037,26.5867441 89.8555998,26.0113853 90.7695,26.0113853 C91.5569181,26.0113853 92.1774875,26.4268924 92.4439072,27.2638268 L91.9369025,27.3757769 Z M86.2037668,31.1616271 L86.8932285,31.1616271 L86.8932285,30.3865881 L86.2037668,30.3865881 L86.2037668,31.1616271 Z M81.1256466,26.0813541 L81.1256466,29.6691388 C81.1256466,30.2611825 81.5470741,30.753117 82.3425655,30.753117 C83.1364423,30.753117 83.5594844,30.2611825 83.5594844,29.6691388 L83.5594844,26.0813541 L84.1224641,26.0813541 L84.1224641,29.6266193 C84.1224641,30.6406287 83.3904828,31.2315959 82.3425655,31.2315959 C81.2935718,31.2315959 80.5621287,30.6406287 80.5621287,29.6266193 L80.5621287,26.0813541 L81.1256466,26.0813541 Z M74.39411,28.9947473 C74.5485796,28.3182028 74.3230647,27.8682496 73.774617,27.8682496 C73.1621209,27.8682496 72.7320819,28.3182028 72.5361693,28.9947473 L74.39411,28.9947473 Z M74.7111225,30.3795913 C74.379578,30.7950983 73.9436186,31.2315959 73.1126045,31.2315959 C72.2966607,31.2315959 71.6491802,30.6691544 71.945202,29.3311357 C72.205163,28.148663 72.9516763,27.4306755 73.8510445,27.4306755 C74.6115515,27.4306755 75.1406232,27.9247629 74.8795858,29.09378 L74.8090788,29.4307067 L72.4306778,29.4307067 C72.2466061,30.2326568 72.6066763,30.7950983 73.2121755,30.7950983 C73.6621287,30.7950983 74.0631037,30.5572044 74.3585874,30.1761435 L74.7111225,30.3795913 Z M68.018876,26.0813541 L67.5974485,27.9947317 L67.6119805,27.9947317 C67.9709743,27.6717988 68.3999368,27.4306755 68.8143674,27.4306755 C69.3574329,27.4306755 69.814383,27.7148565 69.6383846,28.5022746 L69.0474173,31.1616271 L68.5409509,31.1616271 L69.124383,28.5151919 C69.2374095,28.0313307 69.0398822,27.8682496 68.6738916,27.8682496 C68.293369,27.8682496 67.7874407,28.1771888 67.5000304,28.4226178 L66.893993,31.1616271 L66.3869883,31.1616271 L67.5129477,26.0813541 L68.018876,26.0813541 Z M63.5101942,27.502259 L63.7776903,26.2998721 L64.2841568,26.2998721 L64.0171989,27.502259 L64.8616685,27.502259 L64.7696326,27.9392949 L63.9257012,27.9392949 L63.349266,30.5432106 C63.3051318,30.7084446 63.4116997,30.7950983 63.7077215,30.7950983 C63.8756466,30.7950983 64.024734,30.7805663 64.1652098,30.7611903 L64.0726357,31.1740062 C63.9752176,31.2041466 63.7631583,31.2315959 63.4676747,31.2315959 C62.919227,31.2315959 62.7157793,31.0900437 62.8212707,30.6260967 L63.4186966,27.9392949 L62.8212707,27.9392949 L62.9122301,27.502259 L63.5101942,27.502259 Z M55.4131895,31.1616271 L56.1306388,27.9392949 L55.5122223,27.9392949 L55.6031817,27.502259 L56.2221365,27.502259 L56.3120195,27.0883666 C56.510085,26.2207535 56.8480881,26.0113853 57.4465905,26.0113853 C57.593525,26.0113853 57.749071,26.0312995 57.8906232,26.0458315 L57.7910523,26.4957847 C57.6721053,26.4823292 57.5515437,26.4473448 57.4390554,26.4473448 C57.0945936,26.4473448 56.9395858,26.5582184 56.8480881,26.9672668 L56.728603,27.502259 L57.5230179,27.502259 L57.4320585,27.9392949 L56.6371053,27.9392949 L55.9201942,31.1616271 L55.4131895,31.1616271 Z M52.1348822,27.8682496 C51.5304594,27.8682496 51.0223783,28.3903245 50.8189306,29.3311357 C50.608486,30.2751763 50.8829789,30.7950983 51.4879399,30.7950983 C52.0923627,30.7950983 52.5918323,30.2751763 52.8028151,29.3311357 C53.0078775,28.3903245 52.7403814,27.8682496 52.1348822,27.8682496 L52.1348822,27.8682496 Z M51.3894454,31.2315959 C50.3905062,31.2315959 50.0729555,30.3865881 50.3130023,29.3311357 C50.5449758,28.2762215 51.2274407,27.4306755 52.2269181,27.4306755 C53.2263955,27.4306755 53.5417933,28.2762215 53.310358,29.3311357 C53.0708495,30.3865881 52.3873081,31.2315959 51.3894454,31.2315959 L51.3894454,31.2315959 Z M44.9668479,26.0813541 L44.9668479,26.5582184 L42.4834938,26.5582184 L42.4834938,28.262766 L44.2493986,28.262766 L44.2493986,28.7412449 L42.4834938,28.7412449 L42.4834938,30.68261 L45.1084002,30.68261 L45.1084002,31.1616271 L41.9199758,31.1616271 L41.9199758,26.0813541 L44.9668479,26.0813541 Z M39.444695,29.6406131 C39.2197184,30.5857301 38.69872,31.2315959 37.6572613,31.2315959 C36.5173081,31.2315959 35.7164345,30.4021966 35.7164345,28.6201451 C35.7164345,26.9672668 36.4333456,26.0113853 37.6572613,26.0113853 C38.6013019,26.0113853 39.1492114,26.5582184 39.3747262,27.487727 L38.854266,27.643273 C38.6707324,26.9252855 38.3467231,26.4887878 37.588369,26.4887878 C36.8553112,26.4887878 36.278876,27.1642559 36.278876,28.6201451 C36.278876,30.092181 36.8553112,30.753117 37.700319,30.753117 C38.4807402,30.753117 38.7832207,30.1616115 38.9382285,29.5415803 L39.444695,29.6406131 Z M32.3816139,31.1616271 L32.9435172,31.1616271 L32.9435172,26.0813541 L32.3816139,26.0813541 L32.3816139,31.1616271 Z M29.8562785,26.0813541 L29.8562785,26.5582184 L27.4073705,26.5582184 L27.4073705,28.262766 L29.2227917,28.262766 L29.2227917,28.7412449 L27.4073705,28.7412449 L27.4073705,31.1616271 L26.8454672,31.1616271 L26.8454672,26.0813541 L29.8562785,26.0813541 Z M24.5025889,26.0813541 L24.5025889,26.5582184 L22.053681,26.5582184 L22.053681,28.262766 L23.8701786,28.262766 L23.8701786,28.7412449 L22.053681,28.7412449 L22.053681,31.1616271 L21.4912395,31.1616271 L21.4912395,26.0813541 L24.5025889,26.0813541 Z M16.995475,30.753117 C17.889461,30.753117 18.4174563,30.0636552 18.4174563,28.6201451 C18.4174563,27.1787878 17.889461,26.4887878 16.995475,26.4887878 C16.1025655,26.4887878 15.5751084,27.1787878 15.5751084,28.6201451 C15.5751084,30.0636552 16.1025655,30.753117 16.995475,30.753117 L16.995475,30.753117 Z M16.995475,26.0113853 C18.2414579,26.0113853 18.9798978,26.9252855 18.9798978,28.6201451 C18.9798978,30.3171576 18.2414579,31.2315959 16.995475,31.2315959 C15.7500304,31.2315959 15.0121287,30.3171576 15.0121287,28.6201451 C15.0121287,26.9252855 15.7500304,26.0113853 16.995475,26.0113853 L16.995475,26.0113853 Z M7.65356396,27.502259 L7.54861076,27.9947317 L7.5620663,27.9947317 C7.92106006,27.6717988 8.35056084,27.4306755 8.76606786,27.4306755 C9.30536583,27.4306755 9.76500702,27.7148565 9.58900858,28.5022746 L8.9969649,31.1616271 L8.49157488,31.1616271 L9.0744688,28.5151919 C9.18749532,28.0313307 8.98996802,27.8682496 8.6245156,27.8682496 C8.24560764,27.8682496 7.73752652,28.1771888 7.44850156,28.4226178 L6.84407878,31.1616271 L6.33761232,31.1616271 L7.14548284,27.502259 L7.65356396,27.502259 Z M1.66638768,29.09378 L3.20731591,29.09378 L3.06038144,26.4747941 L2.98287754,26.4747941 L1.66638768,29.09378 Z M5.38221529e-05,31.1616271 L2.68739392,26.0813541 L3.52432839,26.0813541 L3.95974961,31.1616271 L3.36932059,31.1616271 L3.24337676,29.5717207 L1.42095866,29.5717207 L0.590482839,31.1616271 L5.38221529e-05,31.1616271 Z" id="Fill-5" fill="#585E60"></path>
                <mask id="mask-2" fill="white">
                    <use xlink:href="#path-1"></use>
                </mask>
                <g id="Clip-8"></g>
            </g>
        </g>
    </g>
</svg>