<svg xmlns="http://www.w3.org/2000/svg" xmlns:xlink="http://www.w3.org/1999/xlink" viewBox="0 0 194.92 28.43"><defs><mask id="a" x="135" y="0" width="19.25" height="22.4" maskUnits="userSpaceOnUse"><path d="M154.26,0H135V22.4h19.26Z" fill="#fff" fill-rule="evenodd"/></mask><mask id="b" x="117.96" y="5.81" width="14.98" height="22.62" maskUnits="userSpaceOnUse"><path d="M118,28.43h15V5.81H118Z" fill="#fff" fill-rule="evenodd"/></mask></defs><title>lendingclub_l</title><path d="M17.63.42h3.7a.2.2,0,0,1,.2.2V4.31a.19.19,0,0,1-.2.2h-3.7a.19.19,0,0,1-.2-.19h0V.62a.2.2,0,0,1,.2-.2h0m0,5.81h3.7a.2.2,0,0,1,.2.2v3.7a.2.2,0,0,1-.2.2h-3.7a.2.2,0,0,1-.2-.2h0V6.43a.2.2,0,0,1,.2-.2h0m0,5.81h3.7a.2.2,0,0,1,.2.2v3.7a.2.2,0,0,1-.2.2h-3.7a.2.2,0,0,1-.2-.2h0v-3.7a.2.2,0,0,1,.2-.2h0M11.82.42h3.7a.2.2,0,0,1,.2.2V4.31a.19.19,0,0,1-.2.2h-3.7a.19.19,0,0,1-.2-.2V.62a.2.2,0,0,1,.2-.2m0,5.81h3.7a.2.2,0,0,1,.2.2v3.7a.2.2,0,0,1-.2.2h-3.7a.2.2,0,0,1-.2-.2V6.43a.2.2,0,0,1,.2-.2h0m0,5.81h3.7a.2.2,0,0,1,.2.2v3.7a.2.2,0,0,1-.2.2h-3.7a.2.2,0,0,1-.2-.2h0v-3.7a.2.2,0,0,1,.2-.2M6,.42h3.7a.2.2,0,0,1,.2.2V4.31a.19.19,0,0,1-.2.2H6a.19.19,0,0,1-.2-.2V.62A.2.2,0,0,1,6,.42M6,12h3.7a.2.2,0,0,1,.2.2v3.7a.2.2,0,0,1-.2.2H6a.2.2,0,0,1-.2-.2h0v-3.7A.2.2,0,0,1,6,12M.2.42H3.9a.19.19,0,0,1,.19.2V4.31a.19.19,0,0,1-.2.2H.2A.19.19,0,0,1,0,4.32H0V.62A.2.2,0,0,1,.2.42m0,5.81H3.9a.19.19,0,0,1,.19.2v3.7a.19.19,0,0,1-.2.2H.2a.2.2,0,0,1-.2-.2H0V6.43a.2.2,0,0,1,.2-.2h0M.2,12H3.9a.19.19,0,0,1,.19.2v3.7a.19.19,0,0,1-.19.2H.2a.2.2,0,0,1-.2-.2H0v-3.7A.2.2,0,0,1,.2,12m17.43,5.81h3.7a.2.2,0,0,1,.2.2v3.7a.2.2,0,0,1-.2.2h-3.7a.2.2,0,0,1-.2-.2h0v-3.7a.2.2,0,0,1,.2-.2h0M0,21.75v-3.7a.2.2,0,0,1,.2-.2H3.9a.19.19,0,0,1,.19.2v3.7a.19.19,0,0,1-.19.2H.2a.2.2,0,0,1-.2-.2H0m5.81,0v-3.7a.2.2,0,0,1,.2-.2h3.7a.2.2,0,0,1,.2.2v3.7a.2.2,0,0,1-.2.2H6a.2.2,0,0,1-.2-.2h0m5.81,0v-3.7a.2.2,0,0,1,.2-.2h3.7a.2.2,0,0,1,.2.2v3.7a.2.2,0,0,1-.2.2h-3.7a.2.2,0,0,1-.2-.2h0" fill="#e94124" fill-rule="evenodd"/><path d="M29.25.42h4a.2.2,0,0,1,.2.2h0V18.31h9.44a.2.2,0,0,1,.2.2v3.24a.19.19,0,0,1-.19.2H29.25a.2.2,0,0,1-.2-.2h0V.62a.2.2,0,0,1,.2-.2h0m18.85,12H55A3.37,3.37,0,0,0,51.68,9c-2.17,0-3.22,1.43-3.58,3.45M44,14.08c0-4.58,3.1-8.27,7.62-8.27,4.91,0,7.55,3.84,7.62,9.23a.21.21,0,0,1-.21.21H48c.3,2.38,1.62,4,3.94,4a2.88,2.88,0,0,0,2.93-1.77.21.21,0,0,1,.19-.13h3.64a.2.2,0,0,1,.2.25c-.67,2.63-3.08,4.81-6.93,4.81-5.12,0-8-3.72-8-8.33M65.3,8.34A5.15,5.15,0,0,1,70,5.81c3.19,0,5.32,2.41,5.32,5.78V21.75a.19.19,0,0,1-.19.2H71.4a.2.2,0,0,1-.2-.2V12.19a2.57,2.57,0,0,0-2.68-2.83c-1.81,0-3.13,1.45-3.13,3.56v8.83a.2.2,0,0,1-.2.2H61.5a.19.19,0,0,1-.2-.2h0V6.43a.19.19,0,0,1,.19-.2H65.1a.2.2,0,0,1,.2.2V8.34Zm23.19,5.85c0-2.94-1-5.07-3.58-5.07-2.26,0-3.4,2.13-3.4,5S82.68,19,84.79,19c2.44,0,3.7-1.95,3.7-4.78M77.35,14.1c0-4.81,2.74-8.29,6.6-8.29A5,5,0,0,1,88.4,8.1V.62a.2.2,0,0,1,.2-.2h3.69c.11,0,.2.09.2-.07V21.48c0,.38-.09.47-.2.47H88.75a.2.2,0,0,1-.2-.2V19.93a5.23,5.23,0,0,1-4.66,2.47c-3.89,0-6.54-3.3-6.54-8.3m18-7.87h3.69a.19.19,0,0,1,.2.2V21.75a.19.19,0,0,1-.19.2h-3.7a.2.2,0,0,1-.2-.2V6.43a.2.2,0,0,1,.2-.2h0m10.55,2.11a5.15,5.15,0,0,1,4.66-2.53c3.2,0,5.33,2.41,5.33,5.78V21.75a.19.19,0,0,1-.19.2H112a.2.2,0,0,1-.2-.2V12.19a2.57,2.57,0,0,0-2.68-2.83c-1.81,0-3.13,1.45-3.13,3.56v8.83a.2.2,0,0,1-.2.2h-3.69a.19.19,0,0,1-.2-.2V6.43a.19.19,0,0,1,.19-.2h3.61a.2.2,0,0,1,.2.2V8.34Z" fill="#113b5e" fill-rule="evenodd"/><g mask="url(#a)"><path d="M135,11.26C135,4.88,139,0,145.33,0c5.2,0,8.31,3,8.85,7a.19.19,0,0,1-.17.22h-4a.2.2,0,0,1-.2-.16,4.24,4.24,0,0,0-4.51-3.43c-4,0-5.87,3.32-5.87,7.59s2.29,7.56,5.9,7.56A4.35,4.35,0,0,0,150,15.2a.21.21,0,0,1,.2-.18h3.88a.19.19,0,0,1,.2.22,7.57,7.57,0,0,1-2.36,4.87,9.06,9.06,0,0,1-6.53,2.29c-6.05,0-10.36-4.67-10.36-11.14" fill="#113b5e" fill-rule="evenodd"/></g><path d="M156.73.42h3.69a.2.2,0,0,1,.2.2V21.75a.19.19,0,0,1-.19.2h-3.7a.2.2,0,0,1-.2-.2V.62a.2.2,0,0,1,.2-.2M173.37,22a.2.2,0,0,1-.2-.2h0V20.14a5.12,5.12,0,0,1-4.52,2.23c-3.43,0-5.36-2.2-5.36-5.57V6.43a.2.2,0,0,1,.2-.2h3.66a.2.2,0,0,1,.2.2v9.68c0,1.8.82,2.8,2.56,2.8,1.93,0,3.1-1.45,3.1-3.5v-9a.2.2,0,0,1,.21-.2h3.69a.2.2,0,0,1,.2.2h0V21.75a.2.2,0,0,1-.2.2h-3.54Zm17.39-7.85c0-2.85-1.14-5-3.43-5-2.59,0-3.55,2.22-3.55,5.07s1.41,4.78,3.7,4.78c2.11,0,3.28-1.89,3.28-4.87m-7,5.92v1.73a.2.2,0,0,1-.2.2H180c-.11,0-.2-.09-.2-.47V.35c0,.16.09.07.2.07h3.7a.2.2,0,0,1,.2.2V8.1a5,5,0,0,1,4.39-2.29c3.89,0,6.66,3.48,6.66,8.29,0,5-2.65,8.3-6.54,8.3A5.23,5.23,0,0,1,183.72,20" fill="#113b5e" fill-rule="evenodd"/><path d="M95.36.42h3.69a.19.19,0,0,1,.2.2V4.31a.19.19,0,0,1-.19.2h-3.7a.19.19,0,0,1-.2-.2V.62a.2.2,0,0,1,.2-.2" fill="#e94124" fill-rule="evenodd"/><g mask="url(#b)"><path d="M125.38,18.52c-2.17,0-3.26-1.93-3.26-4.65s1.11-4.75,3.12-4.75c2.17,0,3.52,2,3.52,4.67s-.92,4.73-3.38,4.73m7.37-12.29H129.2a.2.2,0,0,0-.2.2V8.19a5.23,5.23,0,0,0-4.67-2.38c-3.88,0-6.37,3.54-6.37,8.29s2.61,7.85,6.5,7.85a5,5,0,0,0,4.45-2.39V22.1c0,2.11-1.11,3.22-3.43,3.22a3,3,0,0,1-3-1.74.21.21,0,0,0-.19-.13h-3.69a.2.2,0,0,0-.2.2v0c.52,2.87,3.09,4.75,7.19,4.75a8.11,8.11,0,0,0,5.57-1.75A6,6,0,0,0,133,22V6.43a.2.2,0,0,0-.2-.2h0" fill="#113b5e" fill-rule="evenodd"/></g></svg>