<?xml version="1.0" encoding="utf-8"?>
<!-- Generator: Adobe Illustrator 23.0.1, SVG Export Plug-In . SVG Version: 6.00 Build 0)  -->
<svg version="1.1" id="Layer_1" xmlns="http://www.w3.org/2000/svg" xmlns:xlink="http://www.w3.org/1999/xlink" x="0px" y="0px"
	 viewBox="0 0 402.4 72.2" style="enable-background:new 0 0 402.4 72.2;" xml:space="preserve">
<style type="text/css">
	.st0{fill:url(#SVGID_1_);}
	.st1{fill:url(#SVGID_2_);}
	.st2{fill:url(#SVGID_3_);}
	.st3{fill:url(#SVGID_4_);}
	.st4{fill:url(#SVGID_5_);}
</style>
<path d="M95.7,1.3l-6.9,32.9h19.5l-1.6,7.5H78.3l8.4-40.4H95.7z"/>
<path d="M123.9,11.4l-6.4,30.3h-6.7l6.4-30.3L123.9,11.4z"/>
<path d="M146.2,38.5c-0.9,1.3-2.1,2.3-3.5,2.9c-1.3,0.6-2.7,0.9-4.2,0.9c-4.3,0-7.6-1.1-9.9-3.4c-2.3-2.3-3.5-5.6-3.5-9.9
	c0-2.4,0.4-4.7,1.2-7c0.7-2.1,1.8-4.1,3.3-5.8c3-3.6,7.5-5.6,12.1-5.5c1.7,0,3.4,0.2,5,0.6c1.5,0.4,2.9,1.1,4.1,2
	c1.2,0.9,2.1,2,2.8,3.3c0.7,1.5,1.1,3.2,1,4.8h-6.7c0.1-1.5-0.6-3-1.7-4c-1.3-0.8-2.9-1.3-4.4-1.2c-1.6,0-3.1,0.4-4.4,1.2
	c-1.2,0.8-2.3,1.8-3.1,3c-0.8,1.3-1.4,2.7-1.8,4.1c-0.4,1.4-0.6,2.9-0.6,4.4c0,1,0.1,2,0.4,3c0.2,0.9,0.7,1.7,1.2,2.5
	c0.6,0.7,1.3,1.3,2.1,1.7c1,0.5,2,0.7,3.1,0.6c1.1,0,2.2-0.1,3.3-0.5c0.9-0.3,1.7-0.8,2.4-1.3c0.7-0.6,1.2-1.2,1.6-2
	c0.5-0.9,0.8-1.8,1.1-2.8h-7l1.1-5h12.9l-3.5,16.4h-4.2L146.2,38.5L146.2,38.5z"/>
<path d="M168.6,11.4L166.2,23h12.3l2.5-11.6h6.7l-6.4,30.3h-6.7l2.8-13.1H165l-2.8,13.1h-6.7l6.4-30.3H168.6z"/>
<path d="M189.4,17l1.2-5.6h25.3l-1.2,5.6h-9.1l-5.2,24.7h-6.7l5.2-24.7H189.4z"/>
<path d="M222.3,31.8c0.4,0.9,1,1.7,1.8,2.3c0.9,0.6,1.8,1,2.8,1.2c1.2,0.3,2.4,0.4,3.6,0.4c0.9,0,1.8-0.1,2.7-0.3
	c0.9-0.2,1.7-0.5,2.5-1c0.7-0.4,1.3-1,1.8-1.8c0.5-0.8,0.7-1.7,0.7-2.6c0-0.9-0.3-1.8-0.9-2.4c-0.7-0.7-1.5-1.2-2.4-1.6
	c-1.1-0.5-2.2-0.9-3.3-1.2c-1.2-0.3-2.5-0.7-3.7-1.1c-1.3-0.4-2.5-0.8-3.7-1.4c-1.2-0.5-2.3-1.2-3.3-2c-1-0.8-1.8-1.9-2.3-3
	c-0.6-1.4-0.9-2.9-0.9-4.4c-0.1-2,0.4-4,1.4-5.8c0.9-1.6,2.2-2.9,3.7-3.9c1.6-1.1,3.3-1.8,5.2-2.3c1.9-0.5,3.8-0.7,5.8-0.7
	c2,0,3.9,0.2,5.9,0.7c1.7,0.4,3.4,1.2,4.8,2.3c1.4,1.1,2.5,2.4,3.3,4c0.9,1.9,1.3,3.9,1.2,6h-8.4c0.1-1-0.1-2-0.5-2.9
	c-0.3-0.8-0.9-1.4-1.5-1.9c-0.7-0.5-1.5-0.9-2.4-1.1c-1.8-0.4-3.6-0.4-5.4-0.1c-0.8,0.2-1.6,0.4-2.3,0.8c-0.7,0.4-1.2,0.9-1.6,1.6
	c-0.4,0.7-0.7,1.5-0.6,2.4c0,0.9,0.4,1.8,1.1,2.5c0.8,0.7,1.7,1.3,2.7,1.6c1,0.4,2.1,0.8,3.2,1l2.7,0.6c1.5,0.4,2.9,0.9,4.4,1.4
	c1.3,0.5,2.4,1.2,3.4,2.1c1,0.9,1.7,2,2.2,3.2c0.6,1.5,0.8,3,0.8,4.6c0.1,2.2-0.5,4.3-1.5,6.2c-1,1.6-2.3,3.1-3.8,4.1
	c-1.6,1.1-3.4,1.9-5.3,2.3c-1.9,0.5-3.9,0.7-5.8,0.7c-5.6,0-9.9-1.2-12.6-3.5s-4.2-5.9-4.1-10.9h8.4
	C221.7,29.5,221.9,30.7,222.3,31.8z"/>
<path d="M252,17l1.2-5.6h25.3l-1.2,5.6h-9.1L263,41.7h-6.7l5.2-24.7H252z"/>
<path d="M296.3,11.4c1.2,0,2.5,0.1,3.7,0.4c1,0.2,2,0.7,2.9,1.4c0.8,0.7,1.4,1.5,1.8,2.5c0.5,1.2,0.7,2.5,0.6,3.7c0,1-0.2,2-0.5,2.9
	c-0.3,0.9-0.8,1.7-1.4,2.5c-0.6,0.7-1.4,1.3-2.2,1.8c-0.9,0.5-1.8,0.8-2.8,0.9v0.1c1.1,0.3,2,1,2.5,2.1c0.4,1,0.7,2.2,0.6,3.3
	c0,0.7,0,1.5-0.1,2.4s-0.1,1.9-0.1,2.8c0,0.7,0,1.3,0.1,1.9c0,0.5,0.2,1.1,0.3,1.6h-6.5c-0.1-0.4-0.2-0.7-0.2-1
	c-0.1-0.3-0.1-0.7-0.1-1c0-1,0.1-2.1,0.2-3.1c0.1-1,0.2-2,0.2-3.1c0-0.6-0.1-1.2-0.3-1.8c-0.2-0.4-0.5-0.8-0.9-1.1
	c-0.4-0.3-0.9-0.5-1.4-0.6c-0.6-0.1-1.2-0.2-1.8-0.1h-6.3l-2.5,11.8h-6.6l6.3-30.3L296.3,11.4z M291.8,25.1c0.9,0,1.7-0.1,2.6-0.3
	c0.8-0.2,1.5-0.4,2.2-0.9c0.6-0.4,1.1-0.9,1.5-1.5c0.4-0.7,0.6-1.4,0.6-2.2c0-0.7-0.1-1.4-0.4-2c-0.2-0.5-0.6-0.9-1.1-1.1
	c-0.5-0.3-1-0.4-1.6-0.5c-0.6-0.1-1.2-0.1-1.9-0.1h-6.3l-1.8,8.5L291.8,25.1z"/>
<path d="M335.6,11.4l-1.1,5.6H318l-1.4,6.5h15.2l-1.1,5.2h-15.3l-1.6,7.4h16.7l-1.2,5.6h-23.3l6.3-30.3L335.6,11.4z"/>
<path d="M356,11.4l5,30.3h-6.6l-1-6.8h-11.3l-3.8,6.8h-7l17.9-30.3L356,11.4z M352.9,29.9l-1.5-12h-0.1l-6.5,12L352.9,29.9z"/>
<path d="M379,11.4l2.3,21.9h0.1l11.7-21.9h9.3L396,41.7h-6.2l5.5-24.1h-0.1l-12.8,24.1h-5.1l-2.9-24.1h-0.1l-4.5,24.1h-6.3l6.4-30.3
	L379,11.4z"/>
<path d="M111.9,55.8l2.9,16h-2.2l-0.7-4.8h-6.7l-2.8,4.8H100l9.6-16L111.9,55.8z M111.6,65.2l-1.2-7.5l0,0l-4.3,7.5H111.6z"/>
<path d="M131.5,55.8c1.7-0.1,3.3,0.5,4.5,1.6c1.1,1.2,1.7,2.9,1.6,4.5c0,1.4-0.2,2.8-0.6,4.1c-0.4,1.1-1,2.2-1.8,3.1
	c-0.8,0.9-1.7,1.5-2.8,2c-1.2,0.5-2.4,0.7-3.6,0.7h-6.2l3.4-16L131.5,55.8z M128.7,70c1,0,2.1-0.2,3-0.7c0.8-0.4,1.5-1.1,2.1-1.8
	c0.6-0.8,1-1.6,1.2-2.5c0.3-0.9,0.4-1.9,0.4-2.9c0-0.6-0.1-1.1-0.2-1.7c-0.1-0.5-0.4-1-0.7-1.5c-0.4-0.4-0.8-0.8-1.4-1
	c-0.7-0.3-1.4-0.4-2.2-0.4h-3.4L125,70H128.7z"/>
<path d="M142.9,58.5l-2.8,13.3h-1.8l2.8-13.3H142.9z"/>
<path d="M146.4,71.8l-1.9-13.3h1.8l1.4,11.6l0,0l6.4-11.6h1.9l-7.5,13.3H146.4z"/>
<path d="M159.1,58.5l-2.8,13.3h-1.8l2.8-13.3H159.1z"/>
<path d="M168.7,61.1c-0.1-0.3-0.3-0.6-0.6-0.9c-0.3-0.2-0.6-0.4-1-0.5c-0.4-0.1-0.8-0.1-1.3-0.1c-0.3,0-0.7,0-1,0.1
	c-0.4,0.1-0.7,0.2-1,0.4c-0.3,0.2-0.6,0.4-0.8,0.7c-0.2,0.3-0.3,0.6-0.3,1c0,0.5,0.2,1.1,0.6,1.4c0.2,0.2,0.4,0.3,0.7,0.4
	c0.3,0.1,0.6,0.2,0.9,0.3l1.8,0.5c0.4,0.1,0.8,0.2,1.2,0.4c0.4,0.2,0.7,0.4,1,0.7c0.3,0.3,0.6,0.6,0.7,1c0.2,0.5,0.3,1,0.3,1.5
	c0,0.6-0.1,1.3-0.5,1.8c-0.3,0.5-0.7,0.9-1.2,1.3c-0.5,0.3-1.1,0.6-1.7,0.7c-0.6,0.2-1.2,0.2-1.8,0.2c-0.7,0-1.5-0.1-2.2-0.3
	c-0.6-0.2-1.2-0.4-1.7-0.8c-0.5-0.4-0.8-0.9-1.1-1.4c-0.3-0.7-0.4-1.4-0.3-2.1h1.8c0,0.5,0,1,0.2,1.5c0.2,0.4,0.4,0.7,0.7,1
	c0.3,0.3,0.7,0.4,1.1,0.5c0.5,0.1,1,0.2,1.5,0.2c0.4,0,0.8-0.1,1.2-0.2c0.4-0.1,0.8-0.2,1.1-0.5c0.3-0.2,0.6-0.5,0.8-0.8
	c0.2-0.4,0.3-0.8,0.3-1.2c0-0.6-0.2-1.1-0.7-1.5c-0.2-0.2-0.5-0.3-0.8-0.4c-0.3-0.1-0.6-0.2-0.9-0.3l-1.8-0.5
	c-0.4-0.1-0.8-0.3-1.1-0.4c-0.4-0.2-0.7-0.4-1-0.7c-0.3-0.3-0.5-0.6-0.7-1c-0.4-1-0.3-2.1,0.2-3c0.3-0.5,0.7-0.9,1.1-1.2
	c0.5-0.3,1-0.6,1.6-0.7c0.6-0.2,1.2-0.2,1.8-0.2c0.6,0,1.3,0.1,1.9,0.3c0.6,0.1,1.1,0.4,1.6,0.8c0.5,0.3,0.8,0.8,1.1,1.3
	c0.3,0.6,0.4,1.3,0.4,1.9h-1.8C168.9,62,168.9,61.5,168.7,61.1z"/>
<path d="M176.1,58.5l-2.8,13.3h-1.8l2.8-13.3H176.1z"/>
<path d="M177.4,63.2c0.3-0.9,0.8-1.8,1.4-2.6c0.6-0.7,1.4-1.4,2.3-1.8c1-0.5,2-0.7,3.1-0.7c0.8,0,1.6,0.1,2.3,0.5
	c0.7,0.3,1.3,0.7,1.8,1.3c0.5,0.5,0.9,1.2,1.1,1.9c0.3,0.7,0.4,1.5,0.4,2.3c0,1-0.2,2-0.5,3c-0.3,0.9-0.8,1.8-1.4,2.6
	c-0.6,0.7-1.4,1.4-2.3,1.8c-0.9,0.5-2,0.7-3,0.7c-1.6,0.1-3.1-0.4-4.2-1.5c-1.1-1.2-1.6-2.7-1.5-4.3
	C176.9,65.2,177.1,64.2,177.4,63.2z M178.9,68.1c0.1,0.5,0.4,1,0.7,1.4c0.3,0.4,0.7,0.7,1.2,0.9c0.6,0.2,1.2,0.3,1.8,0.3
	c0.8,0,1.6-0.2,2.3-0.6c0.7-0.4,1.2-0.9,1.7-1.5c0.5-0.6,0.8-1.4,1-2.1c0.2-0.8,0.3-1.6,0.4-2.4c0-0.6-0.1-1.2-0.3-1.7
	c-0.2-0.5-0.4-0.9-0.7-1.3c-0.3-0.4-0.7-0.7-1.2-0.9c-0.5-0.2-1.1-0.4-1.6-0.3c-0.8,0-1.7,0.2-2.4,0.6c-0.7,0.4-1.3,0.9-1.7,1.5
	c-0.5,0.6-0.8,1.4-1,2.1c-0.2,0.8-0.3,1.6-0.4,2.4C178.7,66.9,178.7,67.5,178.9,68.1z"/>
<path d="M195.2,58.5l4.8,11l0,0l2.2-11h1.8l-2.8,13.3h-1.9l-4.7-11l0,0l-2.3,11h-1.7l2.8-13.3H195.2z"/>
<path d="M210.3,63.2c0.3-0.9,0.8-1.8,1.4-2.6c0.6-0.7,1.4-1.4,2.3-1.8c1-0.4,2-0.7,3.1-0.7c0.8,0,1.6,0.1,2.3,0.5
	c0.7,0.3,1.3,0.7,1.8,1.3c0.5,0.5,0.9,1.2,1.1,1.9c0.3,0.7,0.4,1.5,0.4,2.3c0,1-0.2,2-0.5,3c-0.3,0.9-0.8,1.8-1.4,2.6
	c-0.6,0.7-1.4,1.4-2.3,1.8c-0.9,0.5-2,0.7-3,0.7c-1.6,0.1-3.1-0.4-4.2-1.5c-1.1-1.2-1.6-2.7-1.5-4.3
	C209.7,65.2,209.9,64.2,210.3,63.2z M211.8,68.1c0.1,0.5,0.4,1,0.7,1.4c0.3,0.4,0.7,0.7,1.2,0.9c0.6,0.2,1.2,0.3,1.8,0.3
	c0.8,0,1.6-0.2,2.3-0.6c0.7-0.4,1.2-0.9,1.7-1.5c0.5-0.6,0.8-1.4,1-2.1c0.2-0.8,0.3-1.6,0.3-2.4c0-0.6-0.1-1.2-0.2-1.7
	c-0.1-0.5-0.4-0.9-0.7-1.3c-0.3-0.4-0.7-0.7-1.2-0.9c-0.5-0.2-1.1-0.4-1.6-0.3c-0.9,0-1.7,0.2-2.4,0.6c-0.7,0.4-1.3,0.9-1.7,1.5
	c-0.5,0.6-0.8,1.4-1,2.1c-0.2,0.8-0.4,1.6-0.4,2.4C211.5,66.9,211.6,67.5,211.8,68.1L211.8,68.1z"/>
<path d="M234.9,58.5l-0.3,1.5h-7l-0.9,4.2h6.2l-0.3,1.5h-6.2l-1.3,6.1h-1.8l2.8-13.3L234.9,58.5z"/>
<path d="M250.6,59c-0.2-0.4-0.4-0.7-0.7-1c-0.3-0.3-0.7-0.5-1.2-0.5c-0.5-0.1-1-0.2-1.5-0.2c-0.4,0-0.8,0.1-1.2,0.1
	c-0.4,0.1-0.8,0.3-1.2,0.5c-0.4,0.2-0.7,0.5-0.9,0.8c-0.2,0.4-0.4,0.8-0.4,1.2c0,0.3,0.1,0.7,0.2,1c0.1,0.3,0.3,0.5,0.6,0.7
	c0.2,0.2,0.5,0.4,0.8,0.5c0.3,0.1,0.7,0.3,1,0.4l2.2,0.6c0.5,0.1,1,0.3,1.4,0.5c0.5,0.2,0.9,0.5,1.2,0.8c0.4,0.3,0.7,0.8,0.9,1.2
	c0.2,0.6,0.3,1.2,0.3,1.8c0,0.8-0.2,1.5-0.6,2.2c-0.4,0.6-0.9,1.1-1.4,1.4c-0.6,0.4-1.3,0.7-2,0.9c-0.7,0.2-1.5,0.3-2.2,0.3
	c-0.9,0-1.8-0.1-2.6-0.3c-0.7-0.2-1.4-0.5-2.1-1c-0.6-0.5-1-1.1-1.3-1.7c-0.3-0.8-0.4-1.7-0.3-2.5h2.1c0,0.6,0,1.2,0.3,1.8
	c0.2,0.5,0.5,0.9,0.9,1.2c0.4,0.3,0.9,0.5,1.4,0.6c0.6,0.1,1.2,0.2,1.8,0.2c0.5,0,1-0.1,1.5-0.2c0.5-0.1,0.9-0.3,1.3-0.6
	c0.4-0.3,0.7-0.6,0.9-1c0.2-0.4,0.4-0.9,0.3-1.4c0-0.3-0.1-0.7-0.2-1c-0.1-0.3-0.4-0.5-0.6-0.7c-0.3-0.2-0.6-0.4-0.9-0.5
	c-0.3-0.1-0.7-0.3-1.1-0.4l-2.2-0.6c-0.5-0.1-0.9-0.3-1.4-0.5c-0.4-0.2-0.8-0.5-1.1-0.8c-0.3-0.3-0.6-0.7-0.8-1.2
	c-0.2-0.5-0.3-1-0.3-1.5c0-0.7,0.2-1.4,0.5-2c0.3-0.6,0.8-1.1,1.3-1.5c0.6-0.4,1.2-0.7,1.9-0.9c0.7-0.2,1.4-0.3,2.1-0.3
	c0.8,0,1.5,0.1,2.3,0.3c0.7,0.2,1.3,0.5,1.9,0.9c0.5,0.4,1,1,1.3,1.6c0.3,0.7,0.5,1.5,0.4,2.3h-2.1C250.8,60,250.7,59.5,250.6,59z"
	/>
<path d="M265.3,68c-0.1,0.4-0.2,0.7-0.3,1.1c-0.2,0.5-0.5,1-0.9,1.4c-0.3,0.4-0.8,0.7-1.2,1c-0.5,0.3-1,0.4-1.5,0.6
	c-0.5,0.1-1.1,0.2-1.6,0.2c-2,0-3.4-0.5-4.2-1.5s-1-2.4-0.6-4.3l1.7-7.8h1.8l-1.8,8.3c-0.3,1-0.2,2,0.4,2.8c0.7,0.7,1.8,1.1,2.8,1
	c0.6,0,1.2-0.1,1.8-0.3c0.4-0.2,0.8-0.5,1.1-0.8c0.3-0.4,0.5-0.8,0.7-1.3c0.2-0.5,0.3-1.1,0.5-1.7l1.7-8h1.8l-1.7,8
	C265.5,67,265.4,67.5,265.3,68z"/>
<path d="M272,58.5l4.8,11l0,0l2.2-11h1.7l-2.8,13.3H276l-4.7-11l0,0l-2.3,11h-1.7l2.8-13.3H272z"/>
<path d="M289.5,57.6l-3,14.2h-2.1l3-14.2H282l0.4-1.8h12.9l-0.4,1.8L289.5,57.6z"/>
<path d="M301.6,58.5c0.6,0,1.1,0.1,1.6,0.2c0.5,0.1,1,0.3,1.4,0.5c0.4,0.2,0.8,0.6,1,1c0.3,0.5,0.4,1.1,0.4,1.6
	c0,0.4-0.1,0.9-0.2,1.3c-0.1,0.4-0.4,0.8-0.6,1.1c-0.3,0.3-0.6,0.6-0.9,0.8c-0.4,0.2-0.8,0.4-1.2,0.4l0,0c0.3,0.1,0.5,0.2,0.7,0.4
	c0.2,0.2,0.3,0.4,0.5,0.7c0.1,0.3,0.2,0.6,0.2,0.8c0,0.3,0,0.7,0,1c0,0.3-0.1,0.6-0.1,0.9s-0.1,0.6-0.1,0.9c0,0.3,0,0.6,0,0.8
	c0,0.3,0.1,0.6,0.3,0.8h-1.9c-0.1-0.4-0.2-0.7-0.1-1.1c0-0.6,0.1-1.2,0.2-1.8c0.1-0.5,0.1-1,0.1-1.4c0-0.3-0.1-0.6-0.3-0.8
	c-0.1-0.2-0.3-0.3-0.5-0.4c-0.2-0.1-0.4-0.1-0.6-0.1h-4.7l-1.2,5.7h-1.8l2.8-13.3L301.6,58.5z M300.9,64.6c0.6,0,1.2-0.1,1.7-0.3
	c0.4-0.2,0.7-0.4,1-0.7c0.2-0.2,0.4-0.5,0.5-0.9c0.1-0.3,0.1-0.5,0.1-0.8c0-0.3-0.1-0.7-0.2-1c-0.1-0.3-0.3-0.5-0.6-0.6
	c-0.3-0.2-0.5-0.3-0.8-0.3c-0.3-0.1-0.7-0.1-1-0.1h-3.7l-1,4.6L300.9,64.6z"/>
<path d="M317.9,68c-0.1,0.4-0.2,0.7-0.3,1.1c-0.2,0.5-0.5,1-0.9,1.4c-0.3,0.4-0.8,0.7-1.2,1c-0.5,0.2-1,0.4-1.5,0.5
	c-0.5,0.1-1.1,0.2-1.6,0.2c-2,0-3.4-0.5-4.2-1.5s-1-2.4-0.6-4.3l1.7-7.8h1.8l-1.8,8.3c-0.3,1-0.2,2.1,0.4,2.9c0.7,0.7,1.8,1.1,2.8,1
	c0.6,0,1.2-0.1,1.8-0.3c0.4-0.2,0.8-0.5,1.1-0.8c0.3-0.4,0.5-0.8,0.7-1.3c0.2-0.5,0.3-1.1,0.5-1.7l1.7-8h1.8l-1.7,8
	C318.1,67,318,67.5,317.9,68z"/>
<path d="M329.3,61.1c-0.1-0.3-0.3-0.6-0.6-0.9c-0.3-0.2-0.6-0.4-1-0.5c-0.4-0.1-0.8-0.1-1.3-0.1c-0.3,0-0.7,0-1,0.1
	c-0.4,0.1-0.7,0.2-1,0.4c-0.3,0.2-0.5,0.4-0.8,0.7c-0.2,0.3-0.3,0.6-0.3,1c0,0.3,0.1,0.6,0.2,0.8c0.1,0.2,0.3,0.4,0.5,0.6
	c0.2,0.2,0.4,0.3,0.7,0.4c0.3,0.1,0.6,0.2,0.9,0.3l1.8,0.5c0.4,0.1,0.8,0.3,1.2,0.4c0.4,0.2,0.7,0.4,1,0.7c0.3,0.3,0.6,0.6,0.7,1
	c0.2,0.5,0.3,1,0.3,1.5c0,0.6-0.1,1.3-0.5,1.8c-0.3,0.5-0.7,0.9-1.2,1.3c-0.5,0.3-1.1,0.6-1.7,0.7c-0.6,0.2-1.2,0.2-1.8,0.2
	c-0.7,0-1.5-0.1-2.2-0.3c-0.6-0.1-1.2-0.4-1.7-0.8c-0.5-0.4-0.8-0.9-1.1-1.4c-0.3-0.7-0.3-1.4-0.3-2.1h1.8c0,0.5,0,1,0.2,1.5
	c0.1,0.4,0.4,0.7,0.7,1c0.3,0.3,0.7,0.4,1.1,0.5c0.5,0.1,1,0.2,1.5,0.2c0.4,0,0.8-0.1,1.2-0.2c0.4-0.1,0.7-0.2,1.1-0.5
	c0.3-0.2,0.6-0.5,0.8-0.8c0.2-0.4,0.3-0.8,0.3-1.2c0-0.6-0.2-1.1-0.7-1.5c-0.2-0.2-0.5-0.3-0.8-0.4c-0.3-0.1-0.6-0.2-0.9-0.3
	l-1.8-0.5c-0.4-0.1-0.8-0.3-1.1-0.4c-0.3-0.2-0.7-0.4-1-0.7c-0.6-0.6-0.9-1.4-0.9-2.3c0-0.6,0.1-1.2,0.4-1.7
	c0.3-0.5,0.7-0.9,1.1-1.2c0.5-0.3,1-0.6,1.5-0.7c0.6-0.2,1.2-0.2,1.8-0.2c0.6,0,1.3,0.1,1.9,0.3c0.6,0.2,1.1,0.4,1.6,0.8
	c0.5,0.3,0.8,0.8,1.1,1.3c0.3,0.6,0.4,1.3,0.3,1.9h-1.8C329.5,62,329.5,61.5,329.3,61.1z"/>
<path d="M339.3,60l-2.5,11.8H335l2.5-11.8H333l0.3-1.5h10.8l-0.3,1.5H339.3z"/>
<path d="M357.8,55.8c1.2-0.1,2.4,0.2,3.4,1c0.7,0.7,1.1,1.8,1.1,2.8c0,0.5-0.1,0.9-0.2,1.3c-0.1,0.4-0.3,0.8-0.6,1.2
	c-0.3,0.4-0.6,0.7-1,0.9c-0.4,0.3-0.8,0.4-1.3,0.5l0,0c0.7,0.2,1.3,0.6,1.8,1.2c0.4,0.6,0.7,1.4,0.6,2.1c0,0.7-0.1,1.4-0.4,2.1
	c-0.3,0.6-0.7,1.1-1.2,1.6c-0.5,0.4-1.1,0.8-1.8,1c-0.7,0.2-1.5,0.3-2.2,0.3H348l3.3-16L357.8,55.8z M355.6,70c0.4,0,0.7,0,1-0.1
	c0.4-0.1,0.9-0.2,1.3-0.4c0.4-0.2,0.8-0.6,1.1-1c0.3-0.5,0.5-1.1,0.5-1.7c0-0.4-0.1-0.9-0.3-1.2c-0.2-0.3-0.4-0.6-0.7-0.7
	c-0.3-0.2-0.7-0.3-1-0.3c-0.4-0.1-0.8-0.1-1.3-0.1h-4.6l-1.2,5.6H355.6z M356.7,62.7c2.3,0,3.4-1,3.4-3c0-0.4-0.1-0.8-0.3-1.1
	c-0.2-0.3-0.5-0.5-0.8-0.6c-0.3-0.1-0.7-0.2-1-0.3c-0.3,0-0.7-0.1-1-0.1h-4l-1.1,5.1H356.7z"/>
<path d="M372.1,58.5l2.4,13.3h-1.8l-0.6-4h-5.6l-2.3,4h-2l8-13.3H372.1z M371.9,66.3l-1-6.3l0,0l-3.6,6.3H371.9z"/>
<path d="M380.5,58.5l4.8,11l0,0l2.2-11h1.7l-2.8,13.3h-1.9l-4.7-11l0,0l-2.3,11h-1.7l2.8-13.3H380.5z"/>
<path d="M393.9,58.5l-1.4,6.6l0,0l7.5-6.6h2.4L396,64l4.3,7.8h-2l-3.6-6.8l-2.6,2.3l-1,4.5h-1.8l2.8-13.3H393.9z"/>
<linearGradient id="SVGID_1_" gradientUnits="userSpaceOnUse" x1="-1.648077e-03" y1="38.9819" x2="63.29" y2="38.9819" gradientTransform="matrix(1 0 0 -1 0 74)">
	<stop  offset="0" style="stop-color:#FAA93E"/>
	<stop  offset="1.000000e-02" style="stop-color:#FAA83E"/>
	<stop  offset="0.2" style="stop-color:#F58637"/>
	<stop  offset="0.39" style="stop-color:#F26B31"/>
	<stop  offset="0.58" style="stop-color:#EF582D"/>
	<stop  offset="0.79" style="stop-color:#EE4D2B"/>
	<stop  offset="1" style="stop-color:#ED492A"/>
</linearGradient>
<path class="st0" d="M63.2,41.6H38.6c-11.3,0-22.6,0-33.9,0c-4.4,0-5.5-1.6-4.2-5.7c1.5-4.5,7-8.3,11.8-7.3c17,3.9,34,8.1,51,12.1
	L63.2,41.6z"/>
<linearGradient id="SVGID_2_" gradientUnits="userSpaceOnUse" x1="15.167" y1="47.7438" x2="66.82" y2="47.7438" gradientTransform="matrix(1 0 0 -1 0 74)">
	<stop  offset="0" style="stop-color:#FAA93E"/>
	<stop  offset="1.000000e-02" style="stop-color:#FAA83E"/>
	<stop  offset="0.2" style="stop-color:#F58637"/>
	<stop  offset="0.39" style="stop-color:#F26B31"/>
	<stop  offset="0.58" style="stop-color:#EF582D"/>
	<stop  offset="0.79" style="stop-color:#EE4D2B"/>
	<stop  offset="1" style="stop-color:#ED492A"/>
</linearGradient>
<path class="st1" d="M66.5,39.4c-16-4.9-32-9.8-48-14.8c-3.7-1.1-4.2-3.1-2.1-6.3c3.8-5.6,10.3-6.7,15.8-2.9
	c11.5,7.9,23,15.7,34.6,23.6L66.5,39.4z"/>
<linearGradient id="SVGID_3_" gradientUnits="userSpaceOnUse" x1="33.9063" y1="53.0826" x2="68.87" y2="53.0826" gradientTransform="matrix(1 0 0 -1 0 74)">
	<stop  offset="0" style="stop-color:#FAA93E"/>
	<stop  offset="1.000000e-02" style="stop-color:#FAA83E"/>
	<stop  offset="0.2" style="stop-color:#F58637"/>
	<stop  offset="0.39" style="stop-color:#F26B31"/>
	<stop  offset="0.58" style="stop-color:#EF582D"/>
	<stop  offset="0.79" style="stop-color:#EE4D2B"/>
	<stop  offset="1" style="stop-color:#ED492A"/>
</linearGradient>
<path class="st2" d="M68.1,37.6c-10.2-8-20.4-16-30.5-24c-2-1.6-5.5-3-2.5-6.6c2.7-3.2,8.6-3.7,11.1-0.9c2.1,2.3,3.9,4.9,5.8,7.4
	c5.6,7.8,11.3,15.6,16.9,23.5L68.1,37.6z"/>
<linearGradient id="SVGID_4_" gradientUnits="userSpaceOnUse" x1="53.0296" y1="55.8623" x2="71.21" y2="55.8623" gradientTransform="matrix(1 0 0 -1 0 74)">
	<stop  offset="0" style="stop-color:#FAA93E"/>
	<stop  offset="1.000000e-02" style="stop-color:#FAA83E"/>
	<stop  offset="0.2" style="stop-color:#F58637"/>
	<stop  offset="0.39" style="stop-color:#F26B31"/>
	<stop  offset="0.58" style="stop-color:#EF582D"/>
	<stop  offset="0.79" style="stop-color:#EE4D2B"/>
	<stop  offset="1" style="stop-color:#ED492A"/>
</linearGradient>
<path class="st3" d="M70.7,36.3c-5.4-9.8-11-19.6-16.3-29.4c-1.2-2.2-2.7-4.7,0.9-6.2s7.4-0.1,8.2,3.4c2.6,10.7,5.2,21.4,7.7,32.1
	L70.7,36.3z"/>
<linearGradient id="SVGID_5_" gradientUnits="userSpaceOnUse" x1="69.1263" y1="56.3858" x2="78.4912" y2="56.3858" gradientTransform="matrix(1 0 0 -1 0 74)">
	<stop  offset="0" style="stop-color:#FAA93E"/>
	<stop  offset="1.000000e-02" style="stop-color:#FAA83E"/>
	<stop  offset="0.2" style="stop-color:#F58637"/>
	<stop  offset="0.39" style="stop-color:#F26B31"/>
	<stop  offset="0.58" style="stop-color:#EF582D"/>
	<stop  offset="0.79" style="stop-color:#EE4D2B"/>
	<stop  offset="1" style="stop-color:#ED492A"/>
</linearGradient>
<path class="st4" d="M72.8,35.2c-1.1-9.9-2.3-19.8-3.3-29.8c-0.2-1.7-1.2-3.9,1.2-4.8c2.2-0.9,4.7-0.7,6.8,0.5
	c1.8,1.1,0.8,3,0.6,4.6c-1.6,9.8-3.2,19.7-4.7,29.5L72.8,35.2z"/>
</svg>
