<svg id="sofi-logo" xmlns="http://www.w3.org/2000/svg" viewBox="0 0 1908.09 507.79"><title>sofi_l(2)</title><path d="M1610.7,341.4c42.7,0,78.9,36.3,78.9,78.9s-36.3,78.9-78.9,78.9-78.9-36.3-78.9-78.9c-.1-44.7,36.2-78.9,78.9-78.9Z" transform="translate(-0.61 -0.01)" fill="#00a9ce"/><path d="M1435.7,170.8c42.7,0,76.8,36.3,76.8,78.9s-36.3,78.9-81.1,78.9c-42.7,0-76.8-36.3-76.8-81.1,2.2-44.7,36.3-76.7,81.1-76.7Z" transform="translate(-0.61 -0.01)" fill="#00a9ce"/><path d="M1435.52,341.52l-2,0c-1.34,0-2.66,0-4,.1h-.14c-.69,0-1.37.07-2.06.13-1.24.1-2.47.22-3.69.37A77.82,77.82,0,0,0,1385.21,358q-.64.49-1.29,1l-1,.83a79,79,0,0,0,48.69,139.48l2,0h.15c43.72-.06,77.22-36.58,78.74-78.05,0-1,.06-2,.06-2.95C1512.5,376.21,1479.37,342.48,1435.52,341.52Zm-2,134.38c-32,0-55.5-25.6-55.5-55.5s25.6-55.5,55.5-55.5c32,0,57.6,25.6,57.6,55.5S1465.55,475.9,1433.55,475.9Z" transform="translate(-0.61 -0.01)" fill="#00a9ce"/><path d="M1866.7,247.6c0,44.8-34.1,78.9-76.8,78.9s-78.9-34.1-78.9-76.8c0-44.8,34.1-78.9,76.8-78.9,44.7,0,78.9,34.1,78.9,76.8Z" transform="translate(-0.61 -0.01)" fill="#00a9ce"/><path d="M1689.6,79c0,44.8-34.1,76.8-78.9,76.8s-78.9-34.1-78.9-78.9c0-42.7,36.3-78.9,78.9-76.8A78.74,78.74,0,0,1,1689.6,79Z" transform="translate(-0.61 -0.01)" fill="#00a9ce"/><path d="M1789.72.12l-2,0c-1.34,0-2.66,0-4,.1h-.14c-.69,0-1.37.07-2.06.13-1.24.1-2.47.22-3.69.37a77.82,77.82,0,0,0-38.47,15.84q-.65.49-1.29,1l-1,.83A79.07,79.07,0,0,0,1708.9,79c0,41.3,29,73.51,68.61,78.29a86.12,86.12,0,0,0,10.24.61,87,87,0,0,0,10.29-.61c39.66-4.76,68.66-37,68.66-78.29C1866.7,34.84,1833.47,1.08,1789.72.12Zm-2,134.38c-32,0-55.5-25.6-55.5-55.5s25.6-55.5,55.5-55.5c32,0,57.6,25.6,57.6,55.5S1819.75,134.5,1787.75,134.5Z" transform="translate(-0.61 -0.01)" fill="#00a9ce"/><path d="M1512.5,79c0,44.8-34.1,78.9-78.9,78.9s-78.9-34.1-78.9-78.9a78.9,78.9,0,0,1,157.77-2.09C1512.49,77.6,1512.5,78.3,1512.5,79Z" transform="translate(-0.61 -0.01)" fill="#00a9ce"/><path d="M1866.6,420.3c0,44.8-34.1,78.9-78.9,78.9s-78.9-34.1-78.9-78.9a78.67,78.67,0,0,1,78.9-78.9h0C1832.53,341.43,1868.8,377.72,1866.6,420.3Z" transform="translate(-0.61 -0.01)" fill="#00a9ce"/><path d="M1610.89,168.6h-.05a78.29,78.29,0,0,0-78.14,78.9c0,44.8,33.77,78.9,78.14,78.9S1689,292.3,1689,247.5C1691.16,204.92,1655.24,168.63,1610.89,168.6Zm-.05,134.4c-31.69,0-55-25.6-55-55.5s25.36-55.5,55-55.5c31.69,0,57,25.6,57,55.5C1667.88,279.6,1642.53,303,1610.84,303Z" transform="translate(-0.61 -0.01)" fill="#00a9ce"/><path d="M669.9,207c-32-32-76.8-49-125.9-49-98.1,0-172.8,74.7-172.8,174.9S445.9,507.8,544,507.8c49.1,0,93.9-19.2,125.9-53.3,29.9-32,46.9-76.8,46.9-123.7S699.7,239,669.9,207ZM544,435.3c-51.2,0-89.6-42.7-89.6-100.3S492.8,234.7,544,234.7c53.3,0,91.7,42.7,91.7,100.3S597.3,435.3,544,435.3Z" transform="translate(-0.61 -0.01)" fill="#00a9ce"/><path d="M1054.51,21.4a7.89,7.89,0,0,1,7.89,7.89V70.5c0,17-10.6,27.7-27.7,27.7H859.09a7.89,7.89,0,0,0-7.89,7.89V207.61a7.89,7.89,0,0,0,7.89,7.89h161.16a7.89,7.89,0,0,1,7.89,7.89v58.86a7.89,7.89,0,0,1-7.89,7.89h-26c-.76,0-1.52.06-2.3.06H857a7.89,7.89,0,0,0-7.89,7.89V460.8c0,.45,0,.89,0,1.33v27.08a7.89,7.89,0,0,1-7.89,7.89h-61a7.89,7.89,0,0,1-7.89-7.89V42.7c0-12.8,10.7-21.3,25.6-21.3Z" transform="translate(-0.61 -0.01)" fill="#00a9ce"/><rect x="1117.29" y="168.59" width="78.9" height="330.6" rx="8.24" fill="#00a9ce"/><path d="M1158.4,113.2c27.7,0,49.1-23.5,49.1-51.2s-23.5-51.2-49.1-51.2c-27.7,2.1-49.1,25.6-49.1,53.3s21.4,49.1,49.1,49.1Z" transform="translate(-0.61 -0.01)" fill="#00a9ce"/><path d="M140.8,501.4h14.9c51.2,0,96-17.1,123.7-46.9,25.6-25.6,38.4-59.7,38.4-100.3,8.6-85.3-81-117.3-151.4-140.8h0c-34.1-12.8-68.3-29.9-68.3-66.1,0-14.9,4.3-27.7,14.9-38.4,12.8-10.7,29.9-19.2,51.2-17.1,58.41,1.69,65.61,50.51,66.2,69.42A7.59,7.59,0,0,0,238,168.6H283.6c22.71-.17,27.76,1.35,27.7-23.5,0-8.5-4.3-23.5-4.3-25.6S281.6,19.3,162.1,17.2C117.3,17.2,76.8,34.3,49,62c-23.5,23.5-34.1,53.3-34.1,85.3,0,96,74.7,123.7,155.7,151.5,29.9,10.7,72.5,25.6,72.5,70.4,0,17.1-6.4,32-17.1,42.7-12.8,12.8-34.1,21.3-55.5,21.3-53.3,0-84.62-20.85-87.36-85.65l-.09-2.4c0-1.16.69-5.69-5-5.74l-73.94.07C.45,339.59.62,342,.62,343.19-.32,429.27,55.19,494.58,140.8,501.4Z" transform="translate(-0.61 -0.01)" fill="#00a9ce"/><path d="M1866.62,76.91A78.65,78.65,0,0,0,1789.72.12l-2,0c-1.34,0-2.66,0-4,.1h-.14c-.69,0-1.37.07-2.06.13-1.24.1-2.47.22-3.69.37a79,79,0,0,0-38.47,15.84q-.65.49-1.29,1l-1,.83A78.2,78.2,0,0,0,1708.85,79c0,41.32,29,73.53,68.66,78.29a86.12,86.12,0,0,0,10.24.61,87,87,0,0,0,10.29-.61c39.63-4.78,68.61-37,68.61-78.29C1866.65,78.3,1866.64,77.6,1866.62,76.91Zm-78.87,57.59c-32,0-55.5-25.6-55.5-55.5s25.6-55.5,55.5-55.5c32,0,57.6,25.6,57.6,55.5S1819.75,134.5,1787.75,134.5Z" transform="translate(-0.61 -0.01)" fill="#00a9ce"/><path d="M1512.42,418.31a78.65,78.65,0,0,0-76.9-76.79l-2,0c-1.34,0-2.66,0-4,.1h-.14c-.69,0-1.37.07-2.06.13-1.24.1-2.47.22-3.69.37A79,79,0,0,0,1385.21,358q-.64.49-1.29,1l-1,.83a78.2,78.2,0,0,0-28.26,60.6c0,44.15,33.11,77.9,76.95,78.88l2,0h.15c44.44-.08,78.32-33.72,78.74-78.05,0-.28,0-.57,0-.85C1512.45,419.7,1512.44,419,1512.42,418.31Zm-78.87,57.59c-32,0-55.5-25.6-55.5-55.5s25.6-55.5,55.5-55.5c32,0,57.6,25.6,57.6,55.5S1465.55,475.9,1433.55,475.9Z" transform="translate(-0.61 -0.01)" fill="#00a9ce"/><path d="M1908.7,481.32a20.14,20.14,0,0,1-40.28,0c0-10.87,9-19.6,20.2-19.6S1908.7,470.45,1908.7,481.32Zm-35.26,0c0,8.73,6.46,15.66,15.3,15.66,8.61,0,14.94-6.93,14.94-15.54s-6.33-15.77-15.06-15.77S1873.44,472.72,1873.44,481.32Zm12.07,10.28H1881V472a39.65,39.65,0,0,1,7.53-.6c3.71,0,5.38.6,6.81,1.44a5.41,5.41,0,0,1,1.92,4.3c0,2.15-1.68,3.82-4.07,4.54v.24c1.92.72,3,2.15,3.59,4.78.6,3,1,4.18,1.43,4.9h-4.9c-.59-.72-1-2.51-1.55-4.78-.36-2.15-1.55-3.11-4.06-3.11h-2.16Zm.12-11.11h2.16c2.5,0,4.54-.84,4.54-2.87,0-1.79-1.32-3-4.19-3a10.88,10.88,0,0,0-2.51.24Z" transform="translate(-0.61 -0.01)" fill="#00a9ce"/><rect x="992.85" y="21.39" width="68.94" height="76.8" fill="#00a9ce"/></svg>